<svg viewBox="0 0 1500 1000" xmlns="http://www.w3.org/2000/svg"><g fill="#434343"><path d="M516.15 1163.43c11.36.42 27 .4 42.56.07v0c28.14-.61 55.76-2.23 56.14-4.1 3.83-.67 2.39-133.74-.65-142.2 -3.33-9.23-37.27-4.49-47.17-4.49 -12.08 0-30-.62-42.16.32 -9.79.75-18.66 2.88-19.26 13.87 -1.78 32.68-.17 85-.11 122.17 .01 9.35-.39 13.93 10.65 14.36Z"/><path d="M477.55 784.22c17.86-9.36 14.92-25 27.66-39l-38.89 25c-7.68 10.42 1.28 19.22 11.23 14Z"/><path d="M460.1 744.3l28.2-80 18.12 81.38 33.24-6.09 0-.01c-7.42 16.99-13.65 34.48-18.66 52.33 -7.91 28.21-24.76 135.91-17.23 155.69l7.25.06c-2.61 3.84-64.17 66-39.28 63.72l0-.01c19.92-1.84 39.95-2.39 59.95-1.65 3 .12 29.24.07 56.32-.53 3.38-.08 9.66-13.44 13-13.53 3.91-.11 4.9 13 8.66 12.92 22.13-.79 40.45-2.06 41-4 .43-1.66 3.83-47.61 4.24-55.78h.7l-.69-28 30.93 4.85c-4 66.29-8.27 153.63-3.62 165.85h33.52c-12.51 11.32-74.68 63.9-46.41 61.77l-.01 0c24.6-1.83 49.28-2.38 73.94-1.65 3.69.11 36.07.06 69.47-.53 4.17-.08 11.92-13.44 16.06-13.54 4.84-.1 6.05 13.06 10.7 12.92 27.29-.78 49.88-2 50.51-4 .57-1.78 5.39-54.86 5.27-57h-.2c1.35-11.54-.41-71-.8-109.14 1.24 3.93 111.59 1.5 122.76 1.5 73 0 93-47.29 105.73-109.24 12.15-59 25.89-147.5 26.66-167.47 1-26.71-24.56-50.26-52.81-53.81 -25-3.14-102.34-3.7-129.29-1.27v0c-36.11-71.08-75-88.43-100.35-80.08 -.22-4.85-.62-9.66-1.2-14.33 -1.33-10.65-2.32-26.09-3-41 3.21.38 1.93.66 5.32.66 8.47 0 18.5-45 21.09-53.84 4.4-15 2.34-34.28-10.28-43.95 -16.91-13-66.57-31.62-84.81-24.14 -31.34 12.84-20.95 38.8-.35 45.34v0c-6.84 7.4-13.13 17.29-18.24 29.38l-.01-.01c-2.77-2.04-6.11-3.13-9.53-3.12l-.01 0c-9.2 0-16.64 7.44-16.64 16.64 0 9.19 7.44 16.64 16.64 16.63 .17 0 .33 0 .5 0l0-.01c-2.31 11.75-3.56 23.69-3.75 35.67 -.47 25 39 25.42 39.06 26.37 1 8 8.23 31.76 10.15 46.43v0c-10.11-5.24-29-8-67.4-.9l-36.46 6.76 -.01-.01c-2.88-2.14-5.57-4.51-8.05-7.09 -12.4-12.64 2.89-39.11-24.85-47.93 -.27-1.4-.52-2.84-.73-4.3l-13.33-80.61c-1.09-3.3-2.52-11.72-11.62-10.69l-43.38 5.75c-14.62 1.7-12.07 10.47-10 22.88l3.85 25.86c-14.27 2.84.44 33.36 2.14 38.71 -10.48-21.86-17.4-1.69-9.36 18.92 7.19 18.44 12.25 34.58 30.61 54.13l-137.46 25.46 2.37 10.62c-38.08 5.47-72.49 25.67-88.83 50.67l-38.85-6.2 -2.71 12.55 35.18 5.93 -.01 0c-2.6 6.46-3.83 13.39-3.61 20.35 .42 11.22 12.36 7.11 13 13.59 1.34 14.41 19.19 13.7 20.8 4.19 -.19.88-2.52 16.3 2.39 22.2 5.83 7 16.86 8.24 21.69-6.82l0-.01c-.11.56-.18 1.14-.21 1.72m235.84-69.16l38.69 23.58 -.01 0c-7.08 15.92-13.14 32.29-18.12 48.99 -7-14.44-13.36-28.25-14.71-31.17l-.01-.01c-6.52-13.63-14.7-26.39-24.34-38Zm211.24 267c-.07-6.81-.09-12.94 0-18l4 .31Z"/></g><g fill="#FFF"><path d="M824 484.58l0 0c-.18-10.15-8.55-18.23-18.69-18.05 -10.15.17-18.23 8.54-18.05 18.68 .17 10.01 8.34 18.04 18.36 18.05l-.01 0c10.22-.1 18.44-8.47 18.37-18.69Zm-18.37 14.59l0-.01c-8.06.17-14.73-6.22-14.91-14.27 -.18-8.06 6.21-14.73 14.26-14.91 8.05-.18 14.72 6.21 14.9 14.26 0 .1 0 .21 0 .31l0 0c.07 7.98-6.33 14.51-14.31 14.58 -.01 0-.01 0-.01 0Z"/><path d="M367 644.39c-24.3 19.71-23.11 25-16.12 37.54l-.01-.01c2.38 4.04 4.43 8.27 6.12 12.66l3.85-1.42 0 0c-1.76-4.58-3.88-9.01-6.35-13.24 -5.93-10.62-7.73-13.82 15.12-32.35 7-5.7 10.57-11.42 10.84-17.51 .47-10.53-8.86-19.6-18.74-29.21 -9.88-9.61-20.22-19.66-19.2-30.67 .75-8.16 7.52-16.38 20.68-25.13 18.07-12 12.45-25.35 7-38.25 -2.77-6.57-5.63-13.37-5.63-20.28h-4.1c0 7.74 3 14.93 5.95 21.88 5.44 12.9 9.73 23.1-5.51 33.23 -14.26 9.49-21.62 18.7-22.5 28.17 -1.2 13 9.8 23.65 20.43 34 9.2 9 17.89 17.4 17.5 26.09 -.23 4.83-3.28 9.58-9.35 14.49Z"/><path d="M565.25 1031.08c-1.15 10.83-1.29 25.71-1.29 37.45v1.47c0 6.93 0 10.42 2.27 12.58 1.47 1.39 3.52 1.82 6.67 1.82 1 0 2.06 0 3.25-.1 1.76-.1 4.23-.11 6.84-.12l-.01-.01c3.36.06 6.73-.05 10.08-.34 7.55-1 9.65-2.64 10.2-7.86 0-.28.71-40.41.15-43.53 -1.56-8.65-6.61-8.53-16.66-8.3l-2.92.06c-1.67 0-3.3 0-4.89-.1 -6.05-.3-12.96-.57-13.71 6.96Z"/><path d="M592.78 1093.47c-1.58 0-3.37 0-5.32-.14 -11.7-.7-18.35.38-21.55 3.51l0-.01c-1.76 1.85-2.62 4.39-2.35 6.94 .31 8 .12 23.2 0 33.28 -.06 5.12-.11 8.84-.07 10l-.01-.01c0 1.07.43 2.09 1.19 2.85 2.36 2.36 7.62 2.34 14.91 2.32 1.85 0 3.76 0 5.66 0h.13c1.13 0 2.3 0 3.48 0 7.47 0 15.29-1 16-9.49 .79-9.54.65-30 .21-39.83 -.43-9.39-5.94-9.42-12.31-9.44Z"/><path d="M592.79 580c6.08 15.85 11.59 30.21 26.52 46.93L485.56 651.7l-2.09.38 2.35 10.57c-25.56 4.08-50.58 15-69 30.26l0-.01c-7.03 5.73-13.22 12.41-18.39 19.87L359 706.48l-3.54 16.51 34.84 5.88 -.01 0c-2.11 6.04-3.08 12.42-2.87 18.81 .29 7.79 5.59 9.66 9.09 10.9 2.9 1 3.76 1.51 3.88 2.79 .8 8.66 7.05 12.75 12.88 13l-.01-.01c2.53.12 5.04-.51 7.23-1.8 -.18 5.45.32 12.48 3.54 16.35l-.01-.01c2.7 3.47 6.81 5.57 11.21 5.74l-.01-.001c.82 0 1.65-.1 2.45-.27 2.92-.64 8-3.07 11.16-11.88h.28l-.01 0c.01-.39.05-.78.12-1.16 .17-.56.35-1.14.51-1.75h-.19c1.49-7.65 6.27-26.54 7.73-29.12 2.86-5.09 8.62-7.78 12.33-7.34l-.01-.01c1.76.08 3.28 1.29 3.76 3 0 1.78-.3 12.81-7.74 21.57 -5.84 6.87-4.84 13.13-2.22 16.41l-.01-.01c1.99 2.44 5.01 3.83 8.17 3.75l0-.01c2.39-.04 4.75-.66 6.85-1.79 11.16-5.85 14.62-13.93 18.29-22.47 2.22-5.18 4.52-10.52 8.75-15.61l30.73-5.63 0-.01c-6.8 15.95-12.56 32.31-17.28 48.99 -7.3 26.07-25.13 136.06-17.17 157l.5 1.31h4.19l-2.59 2.83c-26.61 29-43.52 50-39.58 57.93 1 2 3.05 3 6.1 3 .46 0 1 0 1.46-.07l-.01 0c15.84-1.45 31.74-2.09 47.65-1.92 -6.86 1.05-15.4 4.13-16 15.26 -1.25 22.9-.85 54.73-.46 85.52 .16 13.15.32 25.57.34 36.76v1c0 8.71 0 15 12.62 15.46 5.73.21 12.75.32 20.46.32 12.61 0 27.09-.28 40.82-.81 33.43-1.28 38.3-2.79 39.25-4.4l-.01 0c.09-.12.18-.25.26-.38 2.57-4.43 2.45-51.28 2.27-71.21 -.21-24.41-1.08-67.14-3-72.5 -2.1-5.82-11.94-7.19-24.6-7l0-.01c1.71-1.82 3.28-3.78 4.67-5.85 1.43-2 3.77-5.25 4.86-5.84 .78.6 1.87 3.55 2.47 5.17 1.42 3.84 2.89 7.77 6.24 7.7 41.82-1.49 42.33-3.47 42.87-5.57 .6-2.34 3.34-42.3 4.12-54.22h.93l-.69-27.69 26.65 4.17c-4 65.72-8.2 152.14-3.37 164.85l.51 1.32h29.55l-.79.7c-32.11 28.4-52.75 49.06-49.15 57.58 1 2.36 3.48 3.55 7.39 3.55 .53 0 1.09 0 1.67-.06l-.01 0c24.53-1.82 49.14-2.37 73.73-1.65 3.74.12 36.16.06 69.57-.53 3-.06 6-3.5 9.56-7.48 1.85-2.09 5.3-6 6.51-6.06v0c1.09 0 2.62 3.36 3.54 5.36 1.71 3.77 3.52 7.69 7.16 7.56 51.14-1.47 51.76-3.41 52.41-5.45 .87-2.75 5.38-57.34 5.36-57.69l-.07-1.42c.33-4.16.44-11.73.32-25.67h15.09l13.36 89.49c-2.86 2.28-6.29 5.13-6.93 5.86 2.08-.32 19.29.68 19.1 0v0c1.95 0 4.44.11 6.85.17l1 .16v-.13c4.14.11 7.79.15 7.7-.17 -.23-.8-4.33-4.89-6.61-7.25l12.29-83.4h124.78l15.75 83.63c-2.32 2.39-6.17 6.24-6.39 7 -.22.76 17-.31 19.1 0 -.77-.88-5.57-4.81-8.56-7.15l-33.65-178.65 0-.01c9.12-5.09 17.16-11.92 23.66-20.1 17.17-21.37 25.15-51.79 30.69-78.72 12.35-60 26-148.25 26.7-167.81 1-26.47-24-52.08-54.6-55.92 -23.81-3-99.32-3.78-128.36-1.4 -16.2-31.64-33.93-54.6-52.76-68.3 -16-11.66-32.54-16-46.85-12.28 -.23-4.11-.59-8.11-1.06-11.89 -1.26-10-2.21-24.37-2.85-38.25l-.01-.01c1.03.2 2.09.28 3.15.24 7.24 0 13.51-18.63 21.29-48.67 .76-2.94 1.36-5.27 1.77-6.65 4.36-14.83 2.77-35.6-11-46.16 -16.8-12.87-67.6-32.29-86.84-24.41 -18.93 7.76-21.33 19.13-21.08 25.22 .38 9.48 7.64 18.53 18 22.89l-.01 0c-3.25 3.83-6.18 7.93-8.76 12.24l-.01 0c-2.57 4.26-4.86 8.69-6.86 13.24l0 0c-2.66-1.46-5.64-2.23-8.66-2.23l0-.01c-10.34.17-18.57 8.69-18.39 19.02 .16 9.33 7.17 17.12 16.44 18.25l-.01 0c-2.05 11.1-3.17 22.36-3.36 33.66 -.42 22.81 28.53 26.65 38 27.92l1.26.17c.62 3.75 2.06 9.53 3.7 16.1 2.08 8.33 4.39 17.61 5.68 25.26 -11.2-4.32-30.41-6-65.18.48l-35.56 6.58 0 0c-2.54-1.93-4.92-4.04-7.12-6.32 -4.35-4.45-4.91-11.1-5.49-18.15 -.95-11.42-2-24-19-29.91 -.18-1-.36-2-.51-3l-13.34-80.69 -.08-.32c-.11-.32-.21-.68-.33-1.09 -1.08-3.62-3.59-12.11-13.51-11l-43.35 5.74c-5.47.64-9.15 2.31-11.25 5.11 -3.25 4.36-2.18 10.59-.93 17.8 .13.76.27 1.55.4 2.3l3.54 24.16 -.01 0c-1.92.75-3.49 2.17-4.43 3.99 -3.27 6-.61 16.45 2.42 25l0 0c-1.19-.51-2.53-.51-3.71-.01 -5.87 2.55-6.41 17.22-1.12 30.79 .66 1.8 1.31 3.51 1.96 5.21Zm.79-32.14l-.01 0c.06-.02.12-.02.19-.01 .83 0 3.17 1.4 6.45 8.22l0 0c1.48 3.93 3.2 7.77 5.14 11.5 .91 1.76 1.86 3.55 2.86 5.34 .17.3.34.59.5.89l2.28 4.75 2 4.25 -1.13-3.56c2.51 4.15 5.16 8.21 7.77 12l1.4 2c.47.67.95 1.33 1.42 2 1.18 1.61 2.34 3.14 3.46 4.56l-.01-.01c.28.82.99 1.42 1.84 1.57l.92-4 -.01-.01c.51.17.92.57 1.11 1.07l-.01-.01c-.15-.43-.36-.82-.64-1.16 -.69-.87-1.4-1.8-2.11-2.75 -.45-.6-.91-1.2-1.37-1.83 -.46-.63-.88-1.22-1.32-1.84l-.01-.01c-5.59-7.82-10.62-16-15.08-24.5 -1.08-2.08-2.08-4.13-3-6.11 -.92-1.98-1.68-3.86-2.34-5.66v0c-.2-.61-.51-1.43-.94-2.5 -.14-.37-.3-.77-.48-1.21 -2.78-7-9.29-23.34-5.77-29.82l-.01 0c.34-.66.84-1.22 1.46-1.64l-.01 0c.6-.4 1.28-.67 2-.8h.1l-.01 0c.66-.14 1.35-.1 1.99.12 2.66.94 4.61 5 6.83 10.42 1 5.3 10 20.17 19.54 35.52 1.26 2 2.45 3.93 2.62 4.26l-.01-.01c-.13-.27-.19-.56-.18-.84h4.1c0-.69 0-.69-3.06-5.59 -3.66-5.87-11.73-18.82-16.1-27.28l-.01-.01c-.01-.35-.09-.69-.23-1 -3.67-8.62-4.69-16-2.53-18.26 1.62-1.73 5.43-.87 8.34.16 2.28.92 9.4 12.88 15.12 22.48 7.62 12.8 16.26 27.3 23.3 34.47l0 0c.39.43.76.88 1.11 1.35 1.09 1.38 2.44 3.09 4.22 3.86l0 0c.38.27.87.35 1.33.21l8.1-1.23 -7.35-2.6c-3.5-3.26-13.35-15.22-12.38-17.65l0-.01c.44-.19.93-.25 1.41-.18l0 0c5.69.12 11.35.92 16.86 2.37 .77.22 1.52.45 2.23.69 .71.24 1.55.58 2.27.89 12.33 5.33 13.16 15.22 14 25.53 .62 7.46 1.26 15.18 6.65 20.68 1.69 1.72 3.25 3.18 4.73 4.44 .71.61 1.4 1.17 2.07 1.7 .67.53 1.52 1.15 2.26 1.67 2.6 1.83 5.05 3.22 7.68 4.72 2.3 1.3 4.66 2.64 7.38 4.43l-31.83 62.32 -42.69-38.46 -.12-.1 -.01-.01c-7.26-5.55-14.14-11.56-20.6-18.01l-1.72-1.77c-.56-.6-1.13-1.19-1.67-1.78 -15.77-17.07-21.31-31.51-27.45-47.51 -.65-1.7-1.3-3.41-2-5.14 -5.24-13.8-3.26-24.75-1-25.73Zm10.24-62.65c-1.47.09-2.76-1.48-2.88-3.51 -.12-2.03 1-3.76 2.42-3.86 1.42-.1 2.75 1.48 2.88 3.51 .13 2.03-.96 3.74-2.42 3.84Zm206.66 123.07l0 0c1.17.58 2.3 1.25 3.37 1.99l-.01-.01c1.84 1.26 3.49 2.79 4.91 4.51l0 0c1.2 1.51 2.28 3.12 3.23 4.81 1.84 3.09 3.57 6 7.38 6 1 0 1.86 0 2.67-.05l-.01 0c2.17-.17 4.35 0 6.46.51 .37 3.4 1 7.77 1.94 12.77 .14.76.28 1.54.43 2.33l.42 2.25c3.95 20.7 10.8 49.18 15.15 64.69l-130.71-87.2v0c-3.18-2.12-5.94-3.7-8.4-5.09 -1.31-.75-2.58-1.47-3.85-2.23l31.45-5.83c37.25-6.87 55.68-4.37 65.52.51ZM803.85 560c-.21-1.73-1.49-1.9-4.58-2.31 -8.62-1.14-34.83-4.63-34.47-23.77l-.01 0c.18-11.35 1.33-22.65 3.44-33.8l-.01 0c10.25-1.46 17.38-10.95 15.92-21.21 -.63-4.39-2.78-8.41-6.08-11.35l0-.01c4.03-9.67 9.55-18.64 16.37-26.59 11.79 2.6 37.93 9.68 40.83 12.66 .88 4.58-.08 11.8-1.11 19.43 -2 15-4.08 30.5 6.35 34.18l-.01-.01c2.47.99 4.85 2.19 7.12 3.59 4.18 2.41 8.5 4.88 13.18 5.32 .65 14.34 1.63 29.3 2.93 39.73 .51 4.12.87 8.37 1.1 12.67 -19.61 7.35-30.63 29.15-27 53.13l0 0c-1.95-.31-3.93-.4-5.89-.29 -.78 0-1.62 0-2.57 0 -1.35 0-2.09-1-3.85-4 -2.12-3.58-5-8.37-11.69-12.11 -1.19-8.29-3.83-18.91-6.18-28.33 -1.86-7.29-3.44-13.63-3.85-17ZM766 467l0 0c2.46 0 4.87.66 7 1.92l0 0c.6.34 1.17.74 1.72 1.18l0 0c.59.47 1.14.99 1.66 1.55l0 0c2.47 2.71 3.84 6.26 3.83 9.93l0 0c.03 6.74-4.56 12.62-11.12 14.21l0-.01c-.74.16-1.48.26-2.23.32 -.3 0-.61 0-.92 0 -.31 0-.75 0-1.12-.05l-.01-.01c-8.01-.98-13.71-8.26-12.73-16.26 .86-7.1 6.74-12.53 13.88-12.83Zm202.7 190.44c.82 1.69 1.65 3.41 2.47 5.13l1.19 2.49c.39.83.79 1.66 1.19 2.5 16.21 34.11 33.05 72.15 48.07 106.09 7.76 17.52 15.11 34.15 21.17 47.45h-73.46c9.44-26.54-.08-71.3-6.64-102.1 -1.31-6.19-2.53-11.92-3.46-16.84 -.24-1.3-.47-2.55-.67-3.74 -.23-1.39-.44-2.7-.6-3.9 -.12-.9-.22-1.75-.3-2.53v-.14c-3.94-23.58-14.67-41.75-31.88-54 -19.65-14-43.7-17.6-61.34-18h-2.21 -2.16l0-.01c-6.08.01-12.14.4-18.16 1.18 -3.15-21.45 6.23-40.9 23.16-48 .66-.28 1.33-.54 2-.78l.34-.13c.55-.19 1.11-.35 1.67-.51 25.02-7.18 63.77 11.7 99.6 85.84Zm-75.47 430c-.05.8-.11 1.48-.18 2H683.73c-3.75-15.6.12-97.08 4-161.43l.12-2.06c0-.68.09-1.37.13-2.05 2-33.06 4-61 4.87-72.16 1.46-18.79 5.37-39.33 11.23-60.1 .28-1 .56-2 .85-2.95 .29-.95.57-1.94.86-2.91l0-.01c4.68-15.63 10.3-30.95 16.84-45.89 .27-.63.56-1.26.84-1.89l.83-1.89c2-4.41 4.06-8.74 6.18-13 .88-1.78 1.77-3.55 2.68-5.29 .88-1.71 1.77-3.39 2.67-5.06 1.33-2.51 2.7-4.99 4.12-7.44 11.12-19.43 25.1-28.94 41.55-28.19 35 1.55 72.24 47.76 86.4 78.51 1.7 3.71 9.67 20.82 17.39 36.73 8.06 16.57 12.36 24.79 14.88 28.85 .54.85 1 1.53 1.38 2 1.1 1.48 1.73 1.82 2.28 1.88l0 0c.15.01.3.01.46-.01h4 54.78 4.6l77 .05 0 0c.02.06.05.13.07.21 11.19 32.33 7.18 66.24-10.62 88.82 -20.5 26-57.67 36.87-107.45 31.33h-29c.11-2.5 0-6.85-.38-14.88 -.74-17.58-2.11-50.31 3.83-56.5l0-.01c.34-.45.86-.71 1.43-.72v-4.1l0-.01c-1.68.02-3.28.74-4.39 1.99 -6.61 6.89-6.12 32.08-5 59.51 .29 6.87.59 13.95.29 15.72 -.7 1.17-1.12 4.27-1.24 13.55 0 .65 0 1.34 0 2.06s0 1.34 0 2c0 10.74.18 27.88.68 55.35 .22 12.59.48 26.47.6 38.6 0 1.39 0 2.76 0 4.1 .07 11.3.03 20.57-.28 25.24ZM669.07 831.68H669c-3.58 0-5.93 5.61-9 15.94 -.2.68-.43 1.46-.5 1.63 -2.52 6.22-4.45 34.87-6.52 69.16h-.2l.68 27.19H511.05h-1.08 -4.72c-6.07-22 9.81-124.9 17.71-153.1l-.01 0c4.9-17.39 10.96-34.43 18.14-51 .33-.76.66-1.51 1-2.26 .34-.75.66-1.52 1-2.27 4.95-11.08 10.32-21.72 16-31.62 11.12-19.43 25.1-28.93 41.54-28.19 21.07.93 43 18.06 60.13 38.25l1.51 1.8c.5.61 1 1.21 1.49 1.82l-.01-.01c9.17 11.22 16.96 23.5 23.22 36.57 1.49 3.22 7.7 16.59 14.39 30.51 -6.64 22.53-11.06 44.92-12.65 65.31 -.07.82-2.39 32-4.85 71.83l-26.87-4.21c1.52-25.28 3.78-62.16 6.25-68.26 .13-.32.29-.85.63-2 2.53-8.53 4.07-11.58 4.92-12.63l0 0c.38.81.67 1.67.87 2.55l4-1c-.41-1.64-1.5-5.98-4.63-6.04ZM488.4 655.34l134.2-24.86 -.01-.01c7.11 7.33 14.76 14.14 22.88 20.35l43.42 39.17 -11.83 22.18 .29.17 -12 2.21c-18.09-21.69-41.68-40.5-64.51-41.5 -18.11-.81-33.34 9.37-45.28 30.25l-.01 0c-6.37 11.2-12.15 22.73-17.3 34.54l-30.28 5.48Zm203.69 37.47l1.21-2.36 34-63.61 126.89 84.64c5.28 4.14 41.53 29.2 44.51 30.71l0 0c1.1.59 2.16 1.26 3.16 2 2.48 1.75 5.29 3.72 8.83 3.72v-4.1c-2.24 0-4.29-1.44-6.47-3l0 0c-1.17-.87-2.4-1.66-3.68-2.35 -3-1.54-27.52-18.6-38.6-26.47 -4-13.16-11.93-45.37-16.36-68.35 -.14-.69-.26-1.36-.39-2 -.13-.64-.26-1.37-.38-2 -.86-4.68-1.54-8.85-2-12.23 -.1-.85-.2-1.66-.27-2.4h.07l-.01 0c5.31-.63 10.65-.97 16-1.01h2.2 2.26c17.23.31 41.22 3.6 60.28 17.18 16.26 11.59 26.42 28.84 30.18 51.26 .25 2.57.74 5.71 1.39 9.26 .21 1.18.45 2.41.7 3.68 .25 1.27.47 2.37.72 3.61 .7 3.4 1.47 7 2.28 10.86 6.59 30.93 16.23 76.24 6.31 101.23h-55 -5c-4-4.89-23.42-45.64-33.32-67.13 -14.58-31.66-53.25-79.27-89.94-80.88 -17.69-.78-32.65 8.92-44.46 28.84l-.83 1.41c-.62 1.09-1.23 2.19-1.85 3.29 -.9 1.62-1.8 3.25-2.68 4.9 -3.9 7.28-7.6 14.81-11.08 22.51l-32.1-19.56 -2.63-1.6 -2.63-1.61 -.91-.55 9.53-17.86Zm27 44.93l0-.01c-6.1 13.88-11.42 28.1-15.93 42.59 -4.59-9.6-9.06-19.13-12.42-26.44l0 0c-6.1-12.75-13.65-24.74-22.49-35.75l14.36-2.63Zm-323-21.19l4.48.71 10.76 1.74 4.25.68 16.42 2.59 -3 9 -17.08-2.88 -4.1-.69 -11.77-2 -4.24-.71 -31.41-5.3 1.85-8.55Zm1.82 38.21c-3.45-1.21-6.17-2.18-6.36-7.19l0 0c-.19-6.14.8-12.25 2.92-18l12.08 2 0-.01c-2.37 8.03-4.22 16.21-5.57 24.47l0 0c-1.01-.51-2.05-.94-3.12-1.29Zm15.55 15.53c-3.91-.14-8.3-2.63-8.95-9.15 .05-2.88 2.61-17.06 6.14-28.81l18.14 3.06c-4.34 11.46-7.49 23.54-7.57 29.79 -.68 3.52-4.4 5.25-7.78 5.11Zm90.25-26.45c-5.47 6-8.11 12.16-10.66 18.11 -3.52 8.2-6.56 15.28-16.43 20.45 -4.48 2.36-8.21 1.26-9.92-.88 -1.71-2.14-2.07-6.23 2.14-11.19 9.15-10.76 8.74-24.07 8.71-24.63v-.25l-.06-.24 0 0c-.89-3.4-3.82-5.88-7.31-6.18 -5.83-.67-13 3.45-16.38 9.41 -1.82 3.24-7.14 24.3-8.42 31.81 -1.88 5.77-4.86 9.36-8.5 10.16 -3.26.72-7-.86-9.65-4.09 -3.87-4.66-2.47-17.51-2-20.18 0-.12.05-.24.07-.37l-1.75-.34h1.78c0-11 11.94-45.65 20.54-52.72l-2.6-3.17c-2.23 1.83-4.59 5.13-6.92 9.27l-20.45-3.26 -1.39-1.33 0-.01c-.3.31-.58.65-.83 1l-10.56-1.69c16.19-22.57 47.68-41.22 83.63-46.86L504 744.07Zm12.53 417.54c-8.67-.31-8.67-2.65-8.67-11.36v-1c0-11.21-.18-23.64-.34-36.8 -.39-30.72-.79-62.49.45-85.25 .48-8.86 7-11.14 17.36-11.94 5.17-.39 11.41-.51 17.81-.51 4 0 8 .05 11.92.09 -5.41 5.62-5.25 16.11-5.11 25.06 0 1.43 0 2.84 0 4.2 0 3.74 0 87-.12 91.21 -.27 15.5-.12 22.85 1.49 26.47 -12.52.23-24.87.2-34.81-.17Zm96-143.49c1.24 3.46 2.43 33.73 2.76 70.43 .36 40.08-.49 64.47-1.55 69.24l-.37.07 -.09.48c-4.6 1.35-28.8 2.76-54.14 3.33 -.6-.12-1.16-.22-1.66-.29 -2.14-.33-2.37-.36-2.86-2.53 -.74-3.21-.94-9.78-.7-23.42 .08-4.39.13-90.45.13-91.29 0-1.38 0-2.81 0-4.27 -.22-14.2.43-24.3 10.91-24.88H567c2.13 0 5.3-.21 9-.45 11.09-.74 34.16-2.31 36.27 3.58Zm285.26 40.3c-.1-9.83-.3-22.44-.59-38.67 -.22-11.82-.45-24.77-.58-36.35 1.15.2 2.66.39 4.63.56l11.06 74.46Zm45.37 92.51c-1.92 1.5-4.44 3.55-6.23 5.07 -2.33-2.6-6.68-6.82-6.66-7.06l0-.01c-.13.04-.24.11-.34.2l-24.46-164.91c7.14.4 18.36.63 36.09.63 7.48 0 16.14 0 26.12-.13Zm140.48-87.82H960l11.55-78.41c9.56-.09 20.28-.22 32.31-.4 6.56-.1 11.3-.17 13.18-.17 19.37 0 35.81-3.32 49.58-10.07Zm13-409.51c28.6 3.59 52 27.26 51 51.69 -.76 19.42-14.31 107.27-26.63 167.14 -5.44 26.45-13.24 56.29-29.86 77l0-.01c-6.41 8.03-14.37 14.68-23.41 19.56l-1.76.33 .1.54c-13.43 6.83-29.61 10.19-48.79 10.19 -1.91 0-6.66.07-13.24.17 -7.76.11-20.36.3-34.27.42l-1.49-.21v.23c-29.85.26-65.1.23-71.67-1.33 -.05-5.31-.08-10.23-.06-14.52l2 .15h.16c4.83 0 12.51.08 21.4.16 12.13.12 26.46.26 38.77.26 4.24 0 8.24 0 11.83-.06 31-.34 48.57-2.75 64.58-15.56l5.85-4.67 -.01 0c4.17-3.1 8.04-6.6 11.55-10.44 1.23-1.27 2.74-2.83 4.67-4.79 29.15-29.74 55.93-135.94 64.73-170.84 5.87-23.27 11.53-56.81-7-79.35 -7.52-9.16-17.87-12.89-35.54-16.93 -14.83-3.4-78.78-3.85-104.58-2.1 -.76-1.58-1.51-3.16-2.27-4.72 -.62-1.28-1.24-2.55-1.87-3.81 29.9-2.23 102.61-1.42 125.8 1.49Z"/></g></svg>
