<svg width="200" height="153" viewBox="0 0 200 153" fill="none" xmlns="http://www.w3.org/2000/svg">
<path d="M88.9968 8.66195C79.4378 8.66195 71.6642 16.44 71.6642 25.9946H47.4592L34.4597 12.9951H19.6663V21.6614H30.8719L35.205 25.9946H23.9995C22.2489 25.9946 20.6673 27.0519 19.9956 28.6681C19.324 30.2887 19.6967 32.152 20.9359 33.3913L49.9984 62.458V86.663H36.9989V95.3293H71.6642V86.663H58.6647V62.458L80.2438 40.8746C82.8264 42.3999 85.7902 43.3315 88.9968 43.3315C98.5557 43.3315 106.329 35.5535 106.329 25.9946C106.329 16.44 98.5557 8.66195 88.9968 8.66195ZM74.0734 34.6609L54.3315 54.537L34.4597 34.6609H74.0734ZM88.9968 34.6652C88.2255 34.6652 87.4888 34.5352 86.7782 34.3445L87.7272 33.3913C88.9664 32.152 89.3391 30.2887 88.6675 28.6681C87.9958 27.0519 86.4142 25.9946 84.6636 25.9946H80.3305C80.3305 21.2108 84.2173 17.3283 88.9968 17.3283C93.7762 17.3283 97.6631 21.2108 97.6631 25.9946C97.6631 30.7784 93.7762 34.6652 88.9968 34.6652Z" fill="black"/>
<path d="M1.128 141.936H3.12C3.248 143.232 3.768 144.176 4.68 144.768C5.608 145.344 6.776 145.632 8.184 145.632C9.432 145.632 10.448 145.344 11.232 144.768C12.032 144.192 12.432 143.4 12.432 142.392C12.432 141.64 12.192 141.04 11.712 140.592C11.232 140.128 10.432 139.792 9.312 139.584L6.048 138.936C3.136 138.392 1.68 136.912 1.68 134.496C1.68 133.072 2.232 131.896 3.336 130.968C4.456 130.04 5.896 129.576 7.656 129.576C9.528 129.576 11.024 129.976 12.144 130.776C13.28 131.576 13.928 132.736 14.088 134.256H12.096C11.952 133.296 11.488 132.552 10.704 132.024C9.92 131.496 8.912 131.232 7.68 131.232C6.464 131.232 5.496 131.536 4.776 132.144C4.056 132.736 3.696 133.496 3.696 134.424C3.696 135.24 3.928 135.848 4.392 136.248C4.872 136.632 5.656 136.928 6.744 137.136L10.104 137.832C11.512 138.12 12.584 138.616 13.32 139.32C14.056 140.008 14.424 141 14.424 142.296C14.424 143.752 13.84 144.952 12.672 145.896C11.504 146.824 10.016 147.288 8.208 147.288C6.224 147.288 4.576 146.84 3.264 145.944C1.952 145.048 1.24 143.712 1.128 141.936ZM27.8449 143.448C27.5729 144.68 26.9809 145.632 26.0689 146.304C25.1569 146.96 24.0849 147.288 22.8529 147.288C21.1249 147.288 19.7249 146.728 18.6529 145.608C17.5809 144.472 17.0449 142.944 17.0449 141.024C17.0449 139.088 17.5809 137.544 18.6529 136.392C19.7249 135.224 21.0849 134.64 22.7329 134.64C24.4289 134.64 25.7169 135.216 26.5969 136.368C27.4769 137.504 27.9169 138.912 27.9169 140.592V141.384H18.9889C19.0369 142.76 19.3969 143.824 20.0689 144.576C20.7569 145.328 21.6849 145.704 22.8529 145.704C24.4209 145.704 25.4609 144.952 25.9729 143.448H27.8449ZM22.7329 136.248C21.7569 136.248 20.9409 136.568 20.2849 137.208C19.6289 137.832 19.2209 138.744 19.0609 139.944H25.9729C25.9409 138.84 25.6529 137.952 25.1089 137.28C24.5649 136.592 23.7729 136.248 22.7329 136.248ZM38.9421 147C38.7981 146.328 38.7261 145.648 38.7261 144.96C38.4701 145.664 37.9581 146.224 37.1901 146.64C36.4221 147.056 35.5341 147.264 34.5261 147.264C33.4221 147.264 32.4941 146.96 31.7421 146.352C30.9901 145.728 30.6141 144.88 30.6141 143.808C30.6141 141.712 32.0061 140.504 34.7901 140.184L38.6781 139.68V138.984C38.6781 138.056 38.4221 137.368 37.9101 136.92C37.3981 136.472 36.7101 136.248 35.8461 136.248C35.0461 136.248 34.4061 136.448 33.9261 136.848C33.4461 137.232 33.1661 137.776 33.0861 138.48H31.1661C31.2781 137.28 31.7661 136.344 32.6301 135.672C33.4941 134.984 34.5821 134.64 35.8941 134.64C37.3981 134.64 38.5661 135 39.3981 135.72C40.2301 136.44 40.6461 137.512 40.6461 138.936V144.48C40.6461 145.52 40.7421 146.36 40.9341 147H38.9421ZM34.9341 145.752C35.9421 145.752 36.8141 145.448 37.5501 144.84C38.3021 144.216 38.6781 143.352 38.6781 142.248V141.168L35.3901 141.528C34.4941 141.656 33.8061 141.872 33.3261 142.176C32.8621 142.48 32.6301 143.008 32.6301 143.76C32.6301 144.352 32.8301 144.832 33.2301 145.2C33.6301 145.568 34.1981 145.752 34.9341 145.752ZM51.4883 134.76V136.584C51.2323 136.52 50.8883 136.488 50.4563 136.488C49.4323 136.488 48.5603 136.888 47.8403 137.688C47.1363 138.472 46.7843 139.592 46.7843 141.048V147H44.7923V134.928H46.7123V137.784C46.9683 136.808 47.4403 136.048 48.1283 135.504C48.8323 134.944 49.6403 134.664 50.5523 134.664C50.9203 134.664 51.2323 134.696 51.4883 134.76ZM54.4643 145.584C53.4243 144.432 52.9043 142.896 52.9043 140.976C52.9043 139.056 53.4243 137.52 54.4643 136.368C55.5203 135.216 56.8963 134.64 58.5923 134.64C59.9363 134.64 61.0323 135 61.8803 135.72C62.7283 136.44 63.2483 137.448 63.4403 138.744H61.5443C61.1923 137.08 60.2083 136.248 58.5923 136.248C57.4243 136.248 56.5123 136.68 55.8563 137.544C55.2003 138.392 54.8723 139.536 54.8723 140.976C54.8723 142.416 55.2003 143.56 55.8563 144.408C56.5123 145.256 57.4243 145.68 58.5923 145.68C60.2083 145.68 61.1923 144.848 61.5443 143.184H63.4403C63.2483 144.48 62.7283 145.488 61.8803 146.208C61.0323 146.928 59.9363 147.288 58.5923 147.288C56.8963 147.288 55.5203 146.72 54.4643 145.584ZM68.7218 137.136C69.0098 136.368 69.4978 135.76 70.1858 135.312C70.8738 134.864 71.6738 134.64 72.5858 134.64C73.9458 134.64 75.0018 135.048 75.7538 135.864C76.5218 136.664 76.9058 137.784 76.9058 139.224V147H74.9138V139.656C74.9138 137.4 73.9538 136.272 72.0338 136.272C71.0418 136.272 70.2418 136.608 69.6338 137.28C69.0258 137.952 68.7218 138.976 68.7218 140.352V147H66.7298V129.336H68.7218V137.136Z" fill="black"/>
<path d="M12.288 97.512C10.848 99.496 10.128 102.28 10.128 105.864C10.128 109.448 10.848 112.232 12.288 114.216C13.728 116.2 15.792 117.192 18.48 117.192C22.32 117.192 24.592 115.304 25.296 111.528H33.36C32.656 115.24 31.056 118.184 28.56 120.36C26.064 122.504 22.704 123.576 18.48 123.576C13.392 123.576 9.312 121.944 6.24 118.68C3.2 115.416 1.68 111.144 1.68 105.864C1.68 100.616 3.216 96.36 6.288 93.096C9.36 89.8 13.424 88.152 18.48 88.152C22.704 88.152 26.064 89.224 28.56 91.368C31.056 93.512 32.656 96.456 33.36 100.2H25.296C24.592 96.424 22.32 94.536 18.48 94.536C15.792 94.536 13.728 95.528 12.288 97.512ZM58.9744 101.304C61.3744 103.608 62.5744 106.744 62.5744 110.712C62.5744 114.68 61.3744 117.816 58.9744 120.12C56.5744 122.424 53.4224 123.576 49.5184 123.576C45.6144 123.576 42.4464 122.424 40.0144 120.12C37.6144 117.816 36.4144 114.68 36.4144 110.712C36.4144 106.744 37.6144 103.608 40.0144 101.304C42.4464 99 45.6144 97.848 49.5184 97.848C53.4224 97.848 56.5744 99 58.9744 101.304ZM45.7744 105.48C44.9104 106.696 44.4784 108.44 44.4784 110.712C44.4784 112.984 44.9104 114.744 45.7744 115.992C46.6384 117.208 47.8864 117.816 49.5184 117.816C51.1504 117.816 52.3824 117.208 53.2144 115.992C54.0784 114.744 54.5104 112.984 54.5104 110.712C54.5104 108.44 54.0784 106.696 53.2144 105.48C52.3824 104.232 51.1504 103.608 49.5184 103.608C47.8864 103.608 46.6384 104.232 45.7744 105.48ZM69.78 120.12C67.38 117.784 66.18 114.648 66.18 110.712C66.18 106.776 67.38 103.656 69.78 101.352C72.212 99.016 75.348 97.848 79.188 97.848C82.452 97.848 85.076 98.712 87.06 100.44C89.076 102.168 90.26 104.472 90.612 107.352H83.028C82.868 106.264 82.452 105.384 81.78 104.712C81.14 104.008 80.244 103.656 79.092 103.656C77.556 103.656 76.356 104.296 75.492 105.576C74.66 106.824 74.244 108.536 74.244 110.712C74.244 112.92 74.66 114.648 75.492 115.896C76.356 117.112 77.556 117.72 79.092 117.72C80.244 117.72 81.14 117.384 81.78 116.712C82.452 116.008 82.868 115.112 83.028 114.024H90.612C90.26 116.936 89.076 119.256 87.06 120.984C85.076 122.712 82.452 123.576 79.188 123.576C75.348 123.576 72.212 122.424 69.78 120.12ZM112.944 123L105.888 113.592L103.344 116.136V123H95.3276V87.672H103.344V107.928L112.416 98.424H121.392L111.408 108.504L121.968 123H112.944ZM140.15 116.664V122.616C138.326 123.128 136.518 123.384 134.726 123.384C131.878 123.384 129.766 122.792 128.39 121.608C127.046 120.424 126.374 118.536 126.374 115.944V104.04H123.11V98.424H126.374V92.328H134.294V98.424H139.622V104.04H134.246V114.312C134.246 115.304 134.47 116.008 134.918 116.424C135.398 116.808 136.134 117 137.126 117C138.182 117 139.19 116.888 140.15 116.664ZM160.224 123C160.064 121.496 159.984 120.296 159.984 119.4C158.704 122.184 156.08 123.576 152.112 123.576C149.488 123.576 147.408 122.92 145.872 121.608C144.336 120.296 143.568 118.536 143.568 116.328C143.568 111.944 146.608 109.432 152.688 108.792L159.6 108.12V107.112C159.6 105.992 159.28 105.128 158.64 104.52C158 103.88 157.088 103.56 155.904 103.56C154.816 103.56 153.952 103.848 153.312 104.424C152.704 105 152.368 105.752 152.304 106.68H144.624C144.88 103.928 146.016 101.768 148.032 100.2C150.08 98.632 152.8 97.848 156.192 97.848C163.68 97.848 167.424 101.24 167.424 108.024V115.992C167.424 118.68 167.568 121.016 167.856 123H160.224ZM154.56 118.44C155.968 118.44 157.152 118.024 158.112 117.192C159.104 116.36 159.6 115.192 159.6 113.688V112.488L155.184 113.016C153.968 113.144 153.04 113.416 152.4 113.832C151.792 114.216 151.488 114.872 151.488 115.8C151.488 116.632 151.76 117.288 152.304 117.768C152.848 118.216 153.6 118.44 154.56 118.44ZM173.605 95.016V88.056H181.91V95.016H173.605ZM173.75 123V98.424H181.766V123H173.75ZM196.391 123H188.375V87.672H196.391V123Z" fill="black"/>
<path d="M137.116 81V72.474H133.532V71.004H142.562V72.474H138.964V81H137.116ZM145.974 75.092C146.151 74.672 146.431 74.3407 146.814 74.098C147.197 73.846 147.654 73.72 148.186 73.72C148.998 73.72 149.633 73.9627 150.09 74.448C150.557 74.924 150.79 75.5867 150.79 76.436V81H148.998V76.856C148.998 75.708 148.522 75.134 147.57 75.134C147.094 75.134 146.707 75.2973 146.408 75.624C146.119 75.9507 145.974 76.4547 145.974 77.136V81H144.182V70.696H145.974V75.092ZM159.205 78.788C159.055 79.5347 158.691 80.118 158.113 80.538C157.534 80.958 156.829 81.168 155.999 81.168C154.944 81.168 154.081 80.8367 153.409 80.174C152.737 79.502 152.401 78.5967 152.401 77.458C152.401 76.3193 152.737 75.414 153.409 74.742C154.081 74.0607 154.93 73.72 155.957 73.72C157.011 73.72 157.823 74.0653 158.393 74.756C158.962 75.4467 159.247 76.296 159.247 77.304V77.878H154.137C154.193 78.5127 154.379 79.0027 154.697 79.348C155.014 79.684 155.448 79.852 155.999 79.852C156.792 79.852 157.31 79.4973 157.553 78.788H159.205ZM155.957 75.05C155.481 75.05 155.089 75.1947 154.781 75.484C154.482 75.764 154.286 76.1747 154.193 76.716H157.539C157.539 76.24 157.403 75.8433 157.133 75.526C156.862 75.2087 156.47 75.05 155.957 75.05ZM168.783 80.524V79.516C168.596 79.8893 168.307 80.202 167.915 80.454C167.523 80.6967 167.061 80.818 166.529 80.818C165.586 80.818 164.826 80.4913 164.247 79.838C163.678 79.1847 163.393 78.326 163.393 77.262C163.393 76.2167 163.682 75.3673 164.261 74.714C164.84 74.0513 165.596 73.72 166.529 73.72C167.061 73.72 167.528 73.8507 167.929 74.112C168.33 74.364 168.624 74.6767 168.811 75.05V73.888H170.575V80.3C170.575 81.42 170.248 82.26 169.595 82.82C168.942 83.38 168.064 83.66 166.963 83.66C166.002 83.66 165.222 83.4687 164.625 83.086C164.037 82.7033 163.678 82.1573 163.547 81.448H165.325C165.502 82.0827 166.048 82.4 166.963 82.4C168.176 82.4 168.783 81.7747 168.783 80.524ZM168.853 77.402V77.108C168.853 76.4827 168.68 75.9787 168.335 75.596C167.999 75.2133 167.556 75.022 167.005 75.022C166.436 75.022 165.988 75.2273 165.661 75.638C165.344 76.0393 165.185 76.5807 165.185 77.262C165.185 77.9433 165.344 78.4893 165.661 78.9C165.988 79.3013 166.436 79.502 167.005 79.502C167.556 79.502 167.999 79.3107 168.335 78.928C168.68 78.5453 168.853 78.0367 168.853 77.402ZM177.25 73.818V75.47C177.063 75.4327 176.834 75.414 176.564 75.414C175.985 75.414 175.504 75.6147 175.122 76.016C174.748 76.408 174.562 76.9727 174.562 77.71V81H172.77V73.888H174.534V75.484C174.702 74.9333 174.977 74.5087 175.36 74.21C175.752 73.9113 176.204 73.762 176.718 73.762C176.932 73.762 177.11 73.7807 177.25 73.818ZM184.812 78.788C184.663 79.5347 184.299 80.118 183.72 80.538C183.142 80.958 182.437 81.168 181.606 81.168C180.552 81.168 179.688 80.8367 179.016 80.174C178.344 79.502 178.008 78.5967 178.008 77.458C178.008 76.3193 178.344 75.414 179.016 74.742C179.688 74.0607 180.538 73.72 181.564 73.72C182.619 73.72 183.431 74.0653 184 74.756C184.57 75.4467 184.854 76.296 184.854 77.304V77.878H179.744C179.8 78.5127 179.987 79.0027 180.304 79.348C180.622 79.684 181.056 79.852 181.606 79.852C182.4 79.852 182.918 79.4973 183.16 78.788H184.812ZM181.564 75.05C181.088 75.05 180.696 75.1947 180.388 75.484C180.09 75.764 179.894 76.1747 179.8 76.716H183.146C183.146 76.24 183.011 75.8433 182.74 75.526C182.47 75.2087 182.078 75.05 181.564 75.05ZM191.041 81C190.976 80.636 190.943 80.2627 190.943 79.88C190.775 80.2813 190.481 80.594 190.061 80.818C189.641 81.042 189.147 81.154 188.577 81.154C187.868 81.154 187.289 80.972 186.841 80.608C186.403 80.2347 186.183 79.7307 186.183 79.096C186.183 77.836 187.037 77.108 188.745 76.912L190.873 76.674V76.338C190.873 75.918 190.752 75.6007 190.509 75.386C190.276 75.162 189.949 75.05 189.529 75.05C189.147 75.05 188.839 75.148 188.605 75.344C188.372 75.54 188.241 75.806 188.213 76.142H186.491C186.566 75.386 186.879 74.7933 187.429 74.364C187.989 73.9347 188.708 73.72 189.585 73.72C190.565 73.72 191.317 73.9533 191.839 74.42C192.362 74.8773 192.623 75.5633 192.623 76.478V79.222C192.623 79.9313 192.67 80.524 192.763 81H191.041ZM189.067 79.908C189.562 79.908 189.987 79.7633 190.341 79.474C190.696 79.1847 190.873 78.774 190.873 78.242V77.808L189.291 77.99C188.853 78.046 188.521 78.144 188.297 78.284C188.073 78.424 187.961 78.662 187.961 78.998C187.961 79.278 188.055 79.502 188.241 79.67C188.437 79.8287 188.713 79.908 189.067 79.908ZM198.506 79.53V80.902C198.04 81.042 197.568 81.112 197.092 81.112C196.346 81.112 195.79 80.9487 195.426 80.622C195.062 80.286 194.88 79.7633 194.88 79.054V75.176H193.9V73.888H194.88V72.11H196.658V73.888H198.352V75.176H196.644V78.774C196.644 79.1007 196.719 79.334 196.868 79.474C197.018 79.6047 197.251 79.67 197.568 79.67C197.867 79.67 198.18 79.6233 198.506 79.53Z" fill="black"/>
</svg>
