<svg width="50" height="50" viewBox="0 0 50 50" fill="none" xmlns="http://www.w3.org/2000/svg">
<path d="M37.4984 4.1644C32.9028 4.1644 29.1655 7.90383 29.1655 12.4974H17.5284L11.2787 6.24765H4.1665V10.4141H9.55378L11.637 12.4974H6.24975C5.40812 12.4974 4.64773 13.0057 4.32483 13.7827C4.00192 14.5619 4.18108 15.4577 4.77689 16.0535L18.7492 30.0279V41.6649H12.4995V45.8314H29.1655V41.6649H22.9157V30.0279L33.2903 19.6513C34.5319 20.3846 35.9568 20.8325 37.4984 20.8325C42.0941 20.8325 45.8314 17.093 45.8314 12.4974C45.8314 7.90383 42.0941 4.1644 37.4984 4.1644ZM30.3237 16.6639L20.8325 26.2197L11.2787 16.6639H30.3237ZM37.4984 16.666C37.1276 16.666 36.7735 16.6035 36.4318 16.5118L36.8881 16.0535C37.4839 15.4577 37.663 14.5619 37.3401 13.7827C37.0172 13.0057 36.2568 12.4974 35.4152 12.4974H33.332C33.332 10.1975 35.2006 8.33089 37.4984 8.33089C39.7963 8.33089 41.6649 10.1975 41.6649 12.4974C41.6649 14.7973 39.7963 16.666 37.4984 16.666Z" fill="black"/>
</svg>
